<svg width="42" height="41" viewBox="0 0 42 41" fill="none" xmlns="http://www.w3.org/2000/svg">
  <mask id="mask0_62_46" style="mask-type:alpha" maskUnits="userSpaceOnUse" x="0" y="0" width="42" height="41">
    <rect x="0.384766" width="41.4903" height="40.2976" fill="#D9D9D9" />
  </mask>
  <g mask="url(#mask0_62_46)">
    <path d="M14.9064 28.5441L21.1299 22.4995L27.3535 28.5441L29.7737 26.1934L23.5502 20.1488L29.7737 14.1041L27.3535 11.7534L21.1299 17.7981L14.9064 11.7534L12.4861 14.1041L18.7096 20.1488L12.4861 26.1934L14.9064 28.5441ZM21.1299 36.9394C18.7385 36.9394 16.4911 36.4987 14.3877 35.6172C12.2844 34.7357 10.4548 33.5393 8.89892 32.0282C7.34303 30.517 6.11129 28.74 5.20369 26.6971C4.29609 24.6543 3.84229 22.4715 3.84229 20.1488C3.84229 17.8261 4.29609 15.6433 5.20369 13.6004C6.11129 11.5575 7.34303 9.78053 8.89892 8.26937C10.4548 6.7582 12.2844 5.56187 14.3877 4.68036C16.4911 3.79885 18.7385 3.35809 21.1299 3.35809C23.5214 3.35809 25.7688 3.79885 27.8721 4.68036C29.9754 5.56187 31.805 6.7582 33.3609 8.26937C34.9168 9.78053 36.1485 11.5575 37.0561 13.6004C37.9637 15.6433 38.4175 17.8261 38.4175 20.1488C38.4175 22.4715 37.9637 24.6543 37.0561 26.6971C36.1485 28.74 34.9168 30.517 33.3609 32.0282C31.805 33.5393 29.9754 34.7357 27.8721 35.6172C25.7688 36.4987 23.5214 36.9394 21.1299 36.9394ZM21.1299 33.5813C24.9908 33.5813 28.2611 32.28 30.9406 29.6775C33.6202 27.0749 34.96 23.8987 34.96 20.1488C34.96 16.3988 33.6202 13.2226 30.9406 10.6201C28.2611 8.01751 24.9908 6.71623 21.1299 6.71623C17.269 6.71623 13.9988 8.01751 11.3192 10.6201C8.6396 13.2226 7.29981 16.3988 7.29981 20.1488C7.29981 23.8987 8.6396 27.0749 11.3192 29.6775C13.9988 32.28 17.269 33.5813 21.1299 33.5813Z" fill="#F5F5F7" />
  </g>
</svg>
