<svg width="48" height="48" viewBox="0 0 48 48" fill="none" xmlns="http://www.w3.org/2000/svg">
  <mask id="mask0_102_8" style="mask-type:alpha" maskUnits="userSpaceOnUse" x="0" y="0" width="48" height="48">
    <rect width="48" height="48" fill="#D9D9D9" />
  </mask>
  <g mask="url(#mask0_102_8)">
    <path d="M14 32C14.5667 32 15.0417 31.8083 15.425 31.425C15.8083 31.0417 16 30.5667 16 30C16 29.4333 15.8083 28.9583 15.425 28.575C15.0417 28.1917 14.5667 28 14 28C13.4333 28 12.9583 28.1917 12.575 28.575C12.1917 28.9583 12 29.4333 12 30C12 30.5667 12.1917 31.0417 12.575 31.425C12.9583 31.8083 13.4333 32 14 32ZM12 26H16V16H12V26ZM20 30H36V26H20V30ZM20 22H36V18H20V22ZM8 40C6.9 40 5.95833 39.6083 5.175 38.825C4.39167 38.0417 4 37.1 4 36V12C4 10.9 4.39167 9.95833 5.175 9.175C5.95833 8.39167 6.9 8 8 8H40C41.1 8 42.0417 8.39167 42.825 9.175C43.6083 9.95833 44 10.9 44 12V36C44 37.1 43.6083 38.0417 42.825 38.825C42.0417 39.6083 41.1 40 40 40H8ZM8 36H40V12H8V36Z" fill="#F5F5F7" />
  </g>
</svg>
