<svg width="42" height="41" viewBox="0 0 42 41" fill="none" xmlns="http://www.w3.org/2000/svg">
  <mask id="mask0_62_49" style="mask-type:alpha" maskUnits="userSpaceOnUse" x="0" y="0" width="42" height="41">
    <rect width="41.4903" height="40.2976" fill="#D9D9D9" />
  </mask>
  <g mask="url(#mask0_62_49)">
    <path d="M12.1013 15.1116V11.7535H36.304V15.1116H12.1013ZM12.1013 21.8279V18.4697H36.304V21.8279H12.1013ZM12.1013 28.5442V25.186H36.304V28.5442H12.1013ZM6.91504 15.1116C6.42523 15.1116 6.01464 14.9507 5.6833 14.6289C5.35195 14.3071 5.18628 13.9083 5.18628 13.4325C5.18628 12.9568 5.35195 12.558 5.6833 12.2362C6.01464 11.9144 6.42523 11.7535 6.91504 11.7535C7.40486 11.7535 7.81544 11.9144 8.14679 12.2362C8.47813 12.558 8.64381 12.9568 8.64381 13.4325C8.64381 13.9083 8.47813 14.3071 8.14679 14.6289C7.81544 14.9507 7.40486 15.1116 6.91504 15.1116ZM6.91504 21.8279C6.42523 21.8279 6.01464 21.667 5.6833 21.3452C5.35195 21.0233 5.18628 20.6246 5.18628 20.1488C5.18628 19.6731 5.35195 19.2743 5.6833 18.9525C6.01464 18.6307 6.42523 18.4697 6.91504 18.4697C7.40486 18.4697 7.81544 18.6307 8.14679 18.9525C8.47813 19.2743 8.64381 19.6731 8.64381 20.1488C8.64381 20.6246 8.47813 21.0233 8.14679 21.3452C7.81544 21.667 7.40486 21.8279 6.91504 21.8279ZM6.91504 28.5442C6.42523 28.5442 6.01464 28.3832 5.6833 28.0614C5.35195 27.7396 5.18628 27.3408 5.18628 26.8651C5.18628 26.3893 5.35195 25.9906 5.6833 25.6688C6.01464 25.3469 6.42523 25.186 6.91504 25.186C7.40486 25.186 7.81544 25.3469 8.14679 25.6688C8.47813 25.9906 8.64381 26.3893 8.64381 26.8651C8.64381 27.3408 8.47813 27.7396 8.14679 28.0614C7.81544 28.3832 7.40486 28.5442 6.91504 28.5442Z" fill="#F5F5F7" />
  </g>
</svg>